<svg width="89" height="21" viewBox="0 0 89 21" fill="none" xmlns="http://www.w3.org/2000/svg">
<rect width="89" height="21" fill="#E8E8E8"/>
<g id="Dashboard" clip-path="url(#clip0_238_33173)">
<rect width="1440" height="2600" transform="translate(-111 -35)" fill="#0C0C0C"/>
<g id="Navigation">
<rect width="1440" height="91" transform="translate(-112 -35)" fill="#0C0C0C"/>
<g id="Top Navigation - Light (Desktop)">
<g id="left" filter="url(#filter0_dd_238_33173)">
<g id="logo">
<g id="g90">
<path id="path92" d="M54.4941 20.4001H50.9355V8.52444C54.3552 4.78007 59.4181 5.41568 60.2019 5.82247L58.8257 8.58412C58.311 8.41177 57.7524 8.40776 57.4112 8.41204C56.2565 8.41177 55.3347 8.70215 54.4941 9.31796V20.4001Z" fill="white"/>
<path id="path94" d="M54.4978 20.4217V20.2879H51.0836V8.54601H50.9393L51.0498 8.63218C53.2343 6.2396 56.0994 5.66473 58.0561 5.6642C58.5844 5.6642 59.0454 5.70622 59.4048 5.76536C59.7636 5.82344 60.026 5.90292 60.1349 5.96073L60.2059 5.84404L60.0748 5.78784L58.6981 8.55003L58.8295 8.60569L58.8785 8.48017C58.3973 8.31933 57.8941 8.29926 57.544 8.29899C57.4975 8.29899 57.4533 8.29926 57.4126 8.29979L57.4149 8.43334V8.29952C56.2345 8.29845 55.2718 8.6006 54.4083 9.23435L54.3535 9.27449V20.4217H54.4978H54.6422V9.33953H54.4978L54.5876 9.44443C55.4057 8.84655 56.2859 8.56876 57.4149 8.56715H57.417C57.4565 8.56662 57.4986 8.56662 57.544 8.56662C57.8803 8.56608 58.3529 8.58829 58.7801 8.73201L58.9048 8.77376L60.393 5.78784L60.276 5.72709C60.1103 5.64225 59.8346 5.56491 59.455 5.50202C59.0771 5.43993 58.6008 5.3963 58.0561 5.3963C56.0437 5.39603 53.0839 5.99097 50.8293 8.45957L50.7949 8.49677V20.5558H54.6422V20.4217H54.4978Z" fill="white"/>
<path id="path96" d="M46.6652 4.57436C45.3852 4.57436 44.376 3.63579 44.376 2.44512C44.376 1.27372 45.4193 0.317749 46.7024 0.317749C47.3225 0.317749 47.9068 0.543357 48.3335 0.953095C48.7501 1.35721 48.9749 1.88765 48.957 2.45208C48.9573 3.63579 47.9539 4.57436 46.6652 4.57436ZM48.5214 20.4099H45.063L45.0342 6.43892L48.5214 5.91169V20.4099Z" fill="white"/>
<path id="path98" d="M46.6679 4.46175C45.4662 4.46068 44.5242 3.58501 44.5228 2.46632C44.5231 1.91796 44.7667 1.42043 45.1619 1.0586C45.5574 0.696502 46.1024 0.472767 46.7052 0.472767C47.2875 0.472767 47.8328 0.684192 48.2323 1.06743L48.232 1.06663C48.6079 1.43221 48.8163 1.90404 48.8169 2.41119L48.8157 2.4698V2.47167V2.47328C48.814 3.585 47.879 4.46041 46.6679 4.46175V4.72938C47.3504 4.72938 47.9615 4.48022 48.3992 4.07262C48.8377 3.6661 49.1047 3.1006 49.1041 2.47328H48.9601L49.1044 2.4773L49.1056 2.41119C49.1056 1.83552 48.8668 1.29492 48.4404 0.881967L48.4402 0.881166C47.9861 0.444934 47.3631 0.204872 46.7052 0.205139C45.3435 0.205139 44.235 1.21918 44.2344 2.46632C44.2344 3.09659 44.5023 3.66422 44.9411 4.07155C45.3796 4.47995 45.9895 4.72965 46.6679 4.72938V4.46175ZM48.5242 20.4311V20.2973H45.2101L45.1812 6.5736L48.3798 6.09027V20.4311H48.5242H48.6685V5.77553L44.8923 6.34638L44.922 20.5652H48.6685V20.4311H48.5242Z" fill="white"/>
<path id="path100" d="M66.3819 20.6092C63.2287 20.6092 61.3525 19.1466 61.3525 16.6876L61.3528 2.26544L64.929 1.73206V5.8594H67.2185V8.42809H64.929V16.6204C64.929 17.8914 65.4221 18.2423 67.3314 18.341L67.3816 18.3493V20.5476L67.3357 20.5704C67.0086 20.6011 66.6882 20.6092 66.3819 20.6092Z" fill="white"/>
<path id="path102" d="M66.3687 20.486C64.8148 20.486 63.5934 20.1255 62.7643 19.4786C61.9361 18.8313 61.4854 17.897 61.4837 16.6983V2.39036L64.7715 1.90007V6.00387H67.061V8.30493H64.7715V16.6311C64.7721 16.9571 64.8027 17.2303 64.8858 17.4645C65.0082 17.8167 65.2672 18.0707 65.6632 18.2224C66.0584 18.376 66.5876 18.4475 67.3101 18.4855L67.3182 18.3517L67.2937 18.4839L67.3439 18.4916L67.3684 18.36H67.2244V20.5583H67.3684L67.3012 20.44L67.2547 20.4627L67.3225 20.581L67.3081 20.448C66.988 20.478 66.6727 20.486 66.3687 20.486V20.7536C66.6779 20.7536 67.0033 20.7456 67.337 20.714L67.3653 20.7116L67.4366 20.6765L67.5131 20.6388V18.2473L67.3425 18.22L67.3341 18.2184H67.326C66.3786 18.171 65.8021 18.0527 65.4891 17.825C65.3315 17.7112 65.2293 17.5731 65.1598 17.3804C65.0911 17.188 65.0605 16.9413 65.0605 16.6311V8.57256H67.3497V5.73624H65.0605V1.58588L61.1953 2.16208V16.6983C61.1933 17.9583 61.6806 18.9849 62.5787 19.6834C63.4762 20.3827 64.7689 20.7536 66.3687 20.7536V20.486Z" fill="white"/>
<path id="path104" d="M74.8992 8.16867C76.4861 8.16867 77.1555 9.66337 77.271 11.0425L72.3172 11.0422C72.5401 9.66952 73.183 8.16867 74.8992 8.16867ZM79.8483 17.0191C79.8483 17.0191 77.3712 18.0789 75.8651 18.1094H75.7606C74.877 18.1094 74.0782 17.7899 73.452 17.1824C72.5817 16.3447 72.1238 15.0403 72.1365 13.491H80.941L80.9332 13.2565C80.859 8.09186 78.9113 5.68268 74.8019 5.68268C70.1865 5.68241 68.498 9.66337 68.4625 13.3788C68.4336 15.7348 69.4674 18.0358 71.164 19.3833C72.2021 20.2092 73.6472 20.6398 75.351 20.6398C76.2716 20.6398 77.2502 20.5154 78.1751 20.2678C79.2219 20.0139 80.9268 19.0555 80.9268 19.0555L79.8483 17.0191Z" fill="white"/>
<path id="path106" d="M74.8931 8.32376C75.2658 8.32376 75.5764 8.41047 75.8423 8.55927C76.2401 8.78247 76.5398 9.15421 76.7496 9.60141C76.9598 10.0483 77.0784 10.5689 77.1212 11.0742L77.2649 11.0635V10.9296H72.3112V11.0635L72.4538 11.0838C72.5632 10.4088 72.7771 9.70739 73.1616 9.18766C73.3536 8.92726 73.586 8.71235 73.8692 8.56194C74.1524 8.41181 74.487 8.32402 74.8931 8.32376V8.05586C74.4419 8.05586 74.0525 8.15569 73.7254 8.32991C73.2344 8.59085 72.8874 9.01316 72.6429 9.49409C72.3987 9.97582 72.2535 10.5204 72.1683 11.0437L72.1435 11.1973H77.4208L77.4087 11.0533C77.3492 10.3478 77.1506 9.61077 76.7519 9.03698C76.5528 8.75062 76.3016 8.50467 75.9916 8.33018C75.6824 8.15622 75.3143 8.05586 74.8931 8.05586V8.32376ZM79.8423 17.0404L79.7816 16.9186C79.7816 16.9186 79.7444 16.9349 79.6742 16.9633C79.4297 17.0642 78.7938 17.3174 78.0585 17.5478C77.3241 17.7782 76.4861 17.9851 75.8559 17.9969L75.8593 18.1307V17.9969H75.7546C74.9084 17.9958 74.1527 17.6942 73.5505 17.1113L73.5502 17.111C72.7254 16.3189 72.2742 15.0733 72.2748 13.5762V13.5136L72.1305 13.5122V13.6461H81.0839L81.0712 13.2738L80.9271 13.2778L81.0712 13.2765C81.0334 10.6791 80.5282 8.75811 79.4901 7.47377C78.4517 6.18728 76.8787 5.56746 74.7959 5.57014C72.4417 5.56719 70.8077 6.59542 69.7873 8.08664C68.7633 9.57706 68.3312 11.523 68.3121 13.3985C68.3121 13.4314 68.3115 13.4646 68.3115 13.4975C68.313 15.8553 69.3525 18.1454 71.0638 19.5063C72.1342 20.3576 73.6154 20.7952 75.3449 20.7949C76.2797 20.7949 77.2704 20.6686 78.2089 20.4176L78.1691 20.2888L78.206 20.4181C78.7516 20.2854 79.4424 19.9795 80.0042 19.7062C80.5657 19.433 80.9941 19.1921 80.9953 19.1913L81.1084 19.1276L79.9095 16.864L79.7816 16.9186L79.8423 17.0404L79.7126 17.0993L80.7912 19.1356L80.9208 19.0768L80.846 18.9622C80.8457 18.9622 80.7409 19.0211 80.566 19.1145C80.0435 19.3936 78.8862 19.9781 78.1324 20.1596L78.1301 20.1604H78.1292C77.2176 20.4045 76.2514 20.5276 75.3449 20.5273C73.6668 20.5273 72.2575 20.1031 71.252 19.3032C69.6172 18.0065 68.5993 15.7833 68.6002 13.4975C68.6002 13.4654 68.6008 13.4336 68.6008 13.4014C68.6178 11.5615 69.0471 9.65922 70.0306 8.23062C71.0165 6.80203 72.5346 5.84044 74.7959 5.83777C76.8224 5.84017 78.2773 6.42467 79.2591 7.63435C80.2409 8.84536 80.7464 10.7118 80.7825 13.2799L80.7828 13.2805L80.7857 13.3782H71.9876L71.9864 13.5106L71.9861 13.5762C71.9864 15.1212 72.4495 16.4363 73.3421 17.2965L73.3418 17.296C73.9925 17.9284 74.8331 18.2653 75.7543 18.2645H75.8593H75.8625C76.6483 18.2474 77.6489 17.9704 78.4644 17.7001C79.2779 17.4292 79.9003 17.163 79.9023 17.1616L79.8423 17.0404Z" fill="white"/>
<path id="path108" d="M87.7241 20.6342C84.6502 20.6342 82.8125 19.1572 82.8125 16.6792L82.8128 2.25759L86.2957 1.70441V16.6455C86.2957 17.9178 86.7801 18.2713 88.6623 18.3326L88.7287 18.3356V20.5753L88.6779 20.5938C88.3462 20.6211 88.0289 20.6342 87.7241 20.6342Z" fill="white"/>
<path id="path110" d="M87.7148 20.509C86.2019 20.5087 85.0108 20.1455 84.2013 19.4933C83.3921 18.8408 82.949 17.8969 82.9476 16.6878L82.9479 2.37882L86.1421 1.87193V16.6541C86.1421 16.98 86.1724 17.2538 86.2538 17.4875C86.3742 17.8391 86.6303 18.0934 87.022 18.2398C87.4132 18.3886 87.9354 18.4512 88.6481 18.475H88.6458L88.7131 18.4777L88.7194 18.3441H88.5748V20.5839H88.7194L88.6663 20.4595L88.6155 20.4779L88.6686 20.6024L88.6559 20.4688C88.328 20.4959 88.0148 20.509 87.7148 20.509V20.7766C88.024 20.7766 88.3456 20.763 88.6813 20.7357L88.7021 20.734L88.7723 20.7084L88.8638 20.6749V18.2159L88.6594 18.2074H88.6585C87.7249 18.179 87.1577 18.069 86.8517 17.8461C86.6975 17.7347 86.5968 17.5975 86.5287 17.4045C86.4608 17.2123 86.4302 16.9645 86.4308 16.6541V1.55426L82.6592 2.15348V16.6878C82.658 17.9566 83.1335 18.9902 84.0119 19.6957C84.8892 20.4014 86.1539 20.7766 87.7148 20.7766V20.509Z" fill="white"/>
<path id="path112" d="M39.0197 17.3175C38.5789 17.6491 37.6081 18.1175 36.5749 18.1175C34.9288 18.0923 33.9095 16.8181 33.9095 15.6636C33.9095 14.3725 34.9288 13.5389 36.4981 13.5389L39.0197 13.5699V17.3175ZM42.5662 10.1191C42.5662 7.18461 39.8156 5.60962 37.2322 5.60962C35.0815 5.64254 33.6754 5.99233 31.6702 6.99593L31.4676 7.10298L32.5331 9.38022L32.7727 9.27585C34.4502 8.49224 35.3847 8.24388 36.6326 8.24388C37.8162 8.24388 39.0904 9.00956 39.0904 10.2393L39.0907 10.9619H35.8035C32.566 10.9619 30.2626 12.9207 30.1982 15.7227C30.1982 18.4038 32.5726 20.6275 35.49 20.6958C35.5694 20.6958 35.6494 20.6998 35.7343 20.6998C38.3407 20.6998 40.7483 19.7952 42.5263 18.1469L42.6002 18.0837L42.5662 10.1191Z" fill="white"/>
<path id="path114" d="M39.0322 17.2778L38.9413 17.1734C38.5273 17.4876 37.5724 17.9466 36.5874 17.9436L36.5877 18.0777L36.59 17.9436C35.8074 17.931 35.1809 17.6251 34.7439 17.1836C34.3068 16.7428 34.0658 16.1647 34.0664 15.6238C34.0675 15.0107 34.3048 14.522 34.7237 14.1776C35.1428 13.8337 35.7531 13.633 36.5106 13.633V13.4991L36.5092 13.633L38.8882 13.6619V17.2778H39.0322H39.1766V13.3977L36.5112 13.3653H36.5106C35.6994 13.3653 35.0152 13.5813 34.5323 13.9771C34.0487 14.3721 33.7765 14.9459 33.7774 15.6238C33.778 16.2375 34.0467 16.8739 34.5311 17.3647C35.0152 17.8553 35.7219 18.1987 36.5851 18.2115H36.5874C37.6688 18.2088 38.6555 17.7309 39.1232 17.3816L39.1766 17.3415V17.2778H39.0322ZM42.5787 10.0794H42.7233C42.7247 8.57238 42.0117 7.40178 40.9713 6.62031C39.9309 5.83803 38.5677 5.43633 37.2447 5.43579L37.2427 5.43606C35.0759 5.46737 33.6299 5.82786 31.6143 6.83869L31.6126 6.8395L31.4085 6.94655L31.2959 7.00596L32.4723 9.52005L32.8487 9.35626L32.8504 9.35573C34.523 8.57559 35.42 8.33901 36.6451 8.33794C37.2037 8.33741 37.7895 8.52046 38.2277 8.84536C38.6668 9.17106 38.9578 9.62897 38.9589 10.1996V10.7883H35.816C34.1662 10.7883 32.7436 11.2885 31.7257 12.1532C30.7079 13.0174 30.099 14.2458 30.0664 15.68V15.6816V15.683C30.0673 18.439 32.5034 20.7189 35.4988 20.7896L35.5005 20.7898H35.5025C35.5764 20.7896 35.657 20.7939 35.7468 20.7939C38.389 20.7941 40.8356 19.8756 42.6407 18.2019L42.5388 18.1071L42.6367 18.2054L42.71 18.1427L42.7571 18.1026L42.7233 10.0789L42.5787 10.0794L42.4343 10.0799L42.4678 17.9856L42.441 18.0087L42.4386 18.0105L42.4366 18.0127C40.6867 19.6353 38.3175 20.5257 35.7468 20.5262C35.6674 20.5262 35.5874 20.5222 35.5025 20.5222V20.656L35.5066 20.5222C32.6671 20.4564 30.3539 18.2891 30.3551 15.683H30.2107L30.3551 15.6856C30.3874 14.3181 30.9622 13.1662 31.9212 12.3505C32.8805 11.5356 34.2283 11.0562 35.816 11.0562L39.2476 11.056V10.1996C39.2482 9.54039 38.902 9.00059 38.4081 8.63608C37.913 8.27077 37.2704 8.07085 36.6451 8.07031C35.3741 8.06871 34.4021 8.32938 32.7202 9.11674L32.7852 9.2361L32.724 9.11513L32.6186 9.1609L31.664 7.11997L31.754 7.07287L31.6827 6.95618L31.7514 7.07394C33.7462 6.07783 35.1117 5.73767 37.247 5.70315L37.2447 5.56987V5.70368C38.5054 5.70315 39.8091 6.08907 40.7897 6.82799C41.7704 7.56771 42.4332 8.65187 42.4343 10.0794H42.5787Z" fill="white"/>
<path id="path116" d="M12.7099 0.517528C10.492 0.962325 8.2738 1.9033 6.31742 3.09692C4.41098 4.26137 2.81169 5.63028 1.69797 6.98233C0.633316 8.27283 0.0322803 9.52773 0.00139152 10.5782C-0.0294972 11.5735 0.452889 12.3844 1.54583 12.8859C1.67949 12.9477 1.82036 12.9954 1.96442 13.0288C2.10529 13.0623 2.25309 13.0826 2.40292 13.0882C2.55332 13.096 2.70517 13.0882 2.86221 13.0735C3.02041 13.0572 3.18149 13.0288 3.34662 12.9903C3.73836 12.898 4.1555 12.7484 4.59313 12.5511C5.03048 12.3549 5.48977 12.1114 5.96812 11.8358C6.45165 11.5569 6.95742 11.2456 7.47416 10.9154C7.99725 10.5806 8.54141 10.2276 9.09394 9.86762C9.65398 9.50204 10.225 9.13593 10.8009 8.77838C11.3814 8.42056 11.9666 8.07265 12.5448 7.75604C13.1317 7.4373 13.7082 7.1496 14.2656 6.91542C14.8268 6.67938 15.3667 6.49471 15.873 6.38258C16.1969 6.30898 16.5055 6.26857 16.7985 6.26054C17.0907 6.2501 17.3609 6.27633 17.6146 6.33789C17.8623 6.40185 18.0895 6.50114 18.2907 6.64111C18.4899 6.77813 18.666 6.95637 18.8141 7.17824C19.6625 8.44278 19.5023 9.91044 18.8022 11.3596C18.1562 12.6999 17.0364 14.0445 15.7829 15.2365C14.5965 16.3645 13.2631 17.3802 12.0471 18.1523C10.8667 18.903 9.75964 19.4476 8.97154 19.6494C8.81508 19.6922 8.66814 19.719 8.53535 19.7324C8.40429 19.7471 8.28593 19.7441 8.182 19.7286C8.07866 19.7136 7.99003 19.6802 7.91786 19.6296C7.84829 19.5798 7.79546 19.5129 7.76111 19.4278C7.58992 18.987 7.83357 18.4697 8.26976 17.9224C8.71866 17.3548 9.36645 16.762 9.96027 16.1868C10.5702 15.5954 11.126 15.0253 11.3552 14.5222C11.593 14.003 11.4871 13.5537 10.7414 13.2191C10.6187 13.1629 10.4946 13.1201 10.3647 13.0882C10.2383 13.0572 10.1081 13.0374 9.97557 13.0267C9.84047 13.0157 9.70883 13.0187 9.57459 13.0318C9.43805 13.0425 9.30698 13.0668 9.17073 13.0987C8.44672 13.2702 7.73888 13.7142 7.1315 14.3097C6.54028 14.8891 6.05703 15.5983 5.73948 16.3247C5.43377 17.0216 5.28712 17.7254 5.33908 18.3436C5.39076 18.9389 5.62401 19.4567 6.07753 19.829C6.27556 19.989 6.50246 20.1124 6.75188 20.2007C6.99553 20.2831 7.26371 20.3345 7.54864 20.3557C7.83183 20.3749 8.1335 20.3629 8.44961 20.3238C8.766 20.2864 9.09712 20.2219 9.43805 20.1325C10.7371 19.7923 12.2509 19.0903 13.7535 18.1587C15.3115 17.1931 16.9177 15.946 18.3054 14.5439C19.8014 13.0374 21.0955 11.3042 21.8106 9.50927C22.6117 7.50982 22.7205 5.37282 21.5415 3.3501C21.1509 2.67889 20.6553 2.12035 20.0716 1.66913C19.4674 1.20158 18.7754 0.856612 18.013 0.620833C17.2338 0.380236 16.3906 0.259266 15.5018 0.245617C14.5991 0.231165 13.6617 0.32778 12.7099 0.517528Z" fill="white"/>
</g>
</g>
</g>
</g>
</g>
</g>
<defs>
<filter id="filter0_dd_238_33173" x="-106" y="-80.7949" width="519.864" height="260.59" filterUnits="userSpaceOnUse" color-interpolation-filters="sRGB">
<feFlood flood-opacity="0" result="BackgroundImageFix"/>
<feColorMatrix in="SourceAlpha" type="matrix" values="0 0 0 0 0 0 0 0 0 0 0 0 0 0 0 0 0 0 127 0" result="hardAlpha"/>
<feMorphology radius="2" operator="erode" in="SourceAlpha" result="effect1_dropShadow_238_33173"/>
<feOffset dx="2" dy="39"/>
<feGaussianBlur stdDeviation="55"/>
<feComposite in2="hardAlpha" operator="out"/>
<feColorMatrix type="matrix" values="0 0 0 0 0.4 0 0 0 0 0.356863 0 0 0 0 0.678431 0 0 0 0.08 0"/>
<feBlend mode="normal" in2="BackgroundImageFix" result="effect1_dropShadow_238_33173"/>
<feColorMatrix in="SourceAlpha" type="matrix" values="0 0 0 0 0 0 0 0 0 0 0 0 0 0 0 0 0 0 127 0" result="hardAlpha"/>
<feMorphology radius="2" operator="erode" in="SourceAlpha" result="effect2_dropShadow_238_33173"/>
<feOffset dy="4"/>
<feGaussianBlur stdDeviation="4"/>
<feComposite in2="hardAlpha" operator="out"/>
<feColorMatrix type="matrix" values="0 0 0 0 0.0627451 0 0 0 0 0.0941176 0 0 0 0 0.156863 0 0 0 0.05 0"/>
<feBlend mode="normal" in2="effect1_dropShadow_238_33173" result="effect2_dropShadow_238_33173"/>
<feBlend mode="normal" in="SourceGraphic" in2="effect2_dropShadow_238_33173" result="shape"/>
</filter>
<clipPath id="clip0_238_33173">
<rect width="1440" height="2600" fill="white" transform="translate(-111 -35)"/>
</clipPath>
</defs>
</svg>
