<?xml version="1.0" encoding="UTF-8"?>
<svg xmlns="http://www.w3.org/2000/svg" viewBox="0 0 146.49 71.95">
  <defs>
    <style>.cls-1{fill:#fff8ec;}.cls-2{fill:#f8991f;}.cls-3{fill:#fff;}</style>
  </defs>
  <g id="Layer_2" data-name="Layer 2">
    <g id="Layer_1-2" data-name="Layer 1">
      <path class="cls-1" d="M24,22.39c-2.53-.51-3.34-.94-3.34-1.09,3.14-5.51,6.68-14.22,9-19-2.43,0-9,.08-11.64.15-1.32,3.19-2.94,8.34-5.68,14.8-.51-4.57-.2-10.81-.6-15.31-2.94,0-9.12-.29-11.76.51-.1,15.09,1.63,32,.81,47.16A68.83,68.83,0,0,0,13,49.67c.5-4.42.3-12.7.5-18.57l2.13-.29c1,3.48.81,12.62.92,19.22,3.74.08,8,.08,10.33.08,1.11-9.29.2-17.49-.41-26C26.44,23.41,25.63,22.9,24,22.39Z"></path>
      <path class="cls-1" d="M46.15,6.7c.41,10.23,1.42,23.65.71,33.67L43.62,39.2C42.2,28.25,42.2,19,42.3,7.43a23.36,23.36,0,0,0-11.24-.29c-.1,14.58-.71,29.6,1.62,44a4.8,4.8,0,0,0,3,1.89c4.46,1.3,9.42.72,13.57.72,2.84,0,5.47-2.39,7.19-3.91C56.59,40.22,57.6,19,57.6,6.92,54.26,6,49.8,6.27,46.15,6.7Z"></path>
      <path class="cls-1" d="M88.53,25.64c-.3-8-.61-20.24-4.15-24.89-5.57-1.16-16-.72-23-.36a47.82,47.82,0,0,0-.71,11.17l2.53.15c0,7.25-.31,17.85.1,25.1l-1.12.51c-1.41.65-.8,7.25-.7,10,4.55,1,14.28.73,18.74.73C87.72,41.89,88.84,33.55,88.53,25.64Zm-10.63,11c-2.33.14-3.55-.08-3.85-.51-.1-1.17-.2-2.4-.28-3.67-.07-.93-.13-1.89-.19-2.87s-.12-1.94-.18-2.93c-.09-1.58-.19-3.19-.29-4.8l-.06-1c-.08-1.32-.17-2.65-.28-4-.13-1.76-.28-3.5-.45-5.18.31-.51,4.36-.14,5,.73.09,1.34.18,2.79.26,4.3.08,1.33.14,2.71.2,4.11,0,.32,0,.65,0,1,.06,1.6.11,3.22.15,4.8,0,.6,0,1.19,0,1.78,0,1.4,0,2.75,0,4C78,34,78,35.42,77.9,36.67Z"></path>
      <path class="cls-1" d="M115.21,3.35c-7.19.08-15.3-.79-22.69-.14C91.91,10.83,90.39,19,90.7,26.93c.3,7.69.6,17.63,3.14,23.66,7.69.29,15.8.94,23.19-.88,2.13-8.63,2.33-16.68,2.33-24.52C119.36,18.37,118.85,9.52,115.21,3.35Zm-7.09,33.74-5.47.58c-2.53-10.66-1.52-12.7-1.72-22,0-.51,1.72-.87,5.47-1.09A69.82,69.82,0,0,1,108.12,37.09Z"></path>
      <path class="cls-1" d="M142.58,22.93c-4.86-1.67-7.5-2.68-9.92-3.77,0-1.6-.61-4.64.4-6l3.24.07c-.1.94,0,3.19-.2,4.13,2.73,1,6,.66,8.71.44C145.93,14.37,147,6.9,144.5,3.2c-.4-1-9.21-1.6-12.25-1.6-4.25,0-7.7.22-10.53,1.38a53.53,53.53,0,0,0,.5,21.26c3.55,2.68,8,3.7,12.66,6.38v7c-.3,1.45-2.94.72-4.25.29-.31-1.6-.51-4.28-.91-6.46-1.83-.07-6.08-.65-7.6.07-.4,6.61-.4,11.76,1.12,16.4,4.05,2.68,15.59,2,20.76,1.16,2.23-7.25,1.32-14.44,1.11-23.29C145.11,23.87,144.1,23.44,142.58,22.93Z"></path>
      <path class="cls-2" d="M72.77,17c.11,1.31.2,2.64.28,4H67.58A7.55,7.55,0,0,1,72.77,17Z"></path>
      <path class="cls-2" d="M83.41,20.92H77.75c-.06-1.4-.12-2.78-.2-4.11A7.77,7.77,0,0,1,83.41,20.92Z"></path>
      <path class="cls-2" d="M73.11,21.89c.1,1.61.2,3.22.29,4.8H68.2a1.56,1.56,0,0,1-1.56-1.56V23.45a1.56,1.56,0,0,1,1.56-1.56Z"></path>
      <path class="cls-2" d="M84.84,23.45v1.68a1.56,1.56,0,0,1-1.56,1.56H77.94c0-1.58-.09-3.2-.15-4.8h5.49A1.56,1.56,0,0,1,84.84,23.45Z"></path>
      <path class="cls-2" d="M73.58,29.62c.06,1,.12,1.94.19,2.87H68.7a2,2,0,1,1,0-4h0l3,2.88Z"></path>
      <path class="cls-2" d="M84.89,30.48a2,2,0,0,1-.59,1.42,2,2,0,0,1-1.43.59H78c0-1.27,0-2.62,0-4h4.89A2,2,0,0,1,84.89,30.48Z"></path>
      <path class="cls-3" d="M12.62,71.77a43.89,43.89,0,0,1-5.38,0C7,70.24,7,69.12,6.66,67.9H5.38c-.58,1.83-.58,2.83-.89,3.95-1.39,0-3.41.06-4.49,0C.89,67.41,1.39,63,2.67,58.54c2,0,4.18,0,6.27-.12C10.26,62.56,11,66.75,12.62,71.77Zm-5.46-7c-.27-1.18-.58-2.18-.89-3.65a29.34,29.34,0,0,0-1,3.73Z"></path>
      <path class="cls-3" d="M23.62,70.24a9.48,9.48,0,0,1-2.75,1.41c-2.21.06-4.53.08-6.58.08A58.21,58.21,0,0,1,14,58.48c1.55,0,3.79,0,5.38,0a6.4,6.4,0,0,1,3.33,1c.74.43,1.2.67,1.2.85a14.68,14.68,0,0,1-.5,4.1,4.5,4.5,0,0,0-1.36.9,5.57,5.57,0,0,1,1.82,1.32A9.79,9.79,0,0,1,23.62,70.24ZM18,64.68a4.83,4.83,0,0,0,1.86-.11c0-1.06-.27-2.14-.27-3.2a3.66,3.66,0,0,0-1.86.17A29,29,0,0,0,18,64.68Zm2,4.64c-.23-.93-.27-2.08-.47-2.79l-1.43.12c.08,1,.16,1.61.27,2.9Z"></path>
      <path class="cls-3" d="M35.16,71.16c0,.39-.58.57-1.7.57a42.71,42.71,0,0,1-6.43-.1c-1.2-.39-.78-4.45-.39-4.88A15.94,15.94,0,0,1,29,67a4.55,4.55,0,0,0,.58,2H31c.27-.49.08-1,.15-1.53-1.2-.67-3.06-1.39-4.76-2.39a11,11,0,0,1,0-6.7,58.43,58.43,0,0,1,8,.1c.86,1.08.78,3.56,1,5-.27.39-3.56.41-3.76-.06a21,21,0,0,0-.15-2.22l-1.74.28a8,8,0,0,0,0,2,45.06,45.06,0,0,1,5.53,2.06A53.16,53.16,0,0,1,35.16,71.16Z"></path>
      <path class="cls-3" d="M37.72,70.55a87.5,87.5,0,0,1-.43-12,17.26,17.26,0,0,1,4.45,0c.35,3.18,0,6.56.7,9.73l1.32-.23v0c0-3.08-.35-6.22-.35-9.56,1.43,0,3.06.1,4.37.06a89.06,89.06,0,0,1-.19,12.15c0,.45-1.08.8-2.25.94a26.86,26.86,0,0,1-5.8-.14C39,71.18,38.61,71.06,37.72,70.55Z"></path>
      <path class="cls-3" d="M55.92,71.69c-.16-.69,0-3-.51-3.81h-.89c-.15,1.14.08,3.44,0,3.79a22.13,22.13,0,0,1-4.45,0,98.19,98.19,0,0,0-.15-13.07c2.82-.22,5.73-.24,8-.2a6.19,6.19,0,0,1,1.93,4.09,13.66,13.66,0,0,1-.27,3.37l-1.27.61c.62.18,2,.55,1.89,1.1a27.41,27.41,0,0,1-.58,4.26A26.56,26.56,0,0,1,55.92,71.69ZM56,64.84A11.91,11.91,0,0,0,55.65,61l-1.51.22c.15,1.35.23,2.53.27,3.87Z"></path>
      <path class="cls-3" d="M61.8,58.58a63.87,63.87,0,0,1,6.66-.1c.78.16,3.57,1.08,3.76,1.73.15,3.57,0,5.59.31,8.5,0,.33-.35.65-1,1a21.51,21.51,0,0,1-3.1,1.84c-1.27.53-4.95.26-6,0A73.08,73.08,0,0,0,61.8,58.58ZM68,68.51a10,10,0,0,0-.15-6.34,7,7,0,0,0-1.82.12c.23,1.59.5,4.16.58,6.06Z"></path>
      <path class="cls-3" d="M74.78,71.87c-.47-4.54.19-8.72-.35-13.33a31.59,31.59,0,0,1,5-.08,43.66,43.66,0,0,0-.31,10.13,24.62,24.62,0,0,0,2.79,0c-.16,1.06-.16,2.37-.39,3.34C79.73,71.79,76.67,71.91,74.78,71.87Z"></path>
      <path class="cls-3" d="M84.3,71.75c.16-2.08-.08-4.57-.11-6.5a25.77,25.77,0,0,0-3.37-6.79c1.31-.08,3.87-.08,5.15-.06.5,1.28.62,2.63,1.39,3.77.62-1,.93-2.75,1.78-3.75,1.32,0,2.71,0,4,0-.89,2-2.48,5.05-3.44,7.09-.12,2-.08,4.43-.16,6.24C88.25,71.73,85.62,71.91,84.3,71.75Z"></path>
      <path class="cls-3" d="M102.27,71.81a20.71,20.71,0,0,1-1-6.65c0-2.16-.15-4.52.89-6.5a43.82,43.82,0,0,1,9.26.17,17.65,17.65,0,0,1-.27,4.7c-.93,0-2.6,0-3.6,0a16.8,16.8,0,0,0-.12-1.79h-1.4a14.94,14.94,0,0,0-.58,3.55,27.16,27.16,0,0,0,.35,3.22,5.69,5.69,0,0,0,2.13-.08l-.11-1.63c0-.15-.86-.13-1.48-.15a8.4,8.4,0,0,1-.23-2.42c1.2,0,3.1.12,4.34.12.7,0,1,.08,1,.27.16,2.28.24,5.13-.46,7.13C108,71.87,105.33,71.61,102.27,71.81Z"></path>
      <path class="cls-3" d="M113.34,64.43c0-2.18,0-4.08,1.28-6a54,54,0,0,1,7.09-.12c1.55,1.89,1.43,4.48,1.35,6.52a37.89,37.89,0,0,1-.69,6.58,28.77,28.77,0,0,1-7.44.19C113.62,69.47,113.34,67.63,113.34,64.43Zm4.19,3.92a7.11,7.11,0,0,0,1.89-.15c-.23-2.22,0-4.71-.46-6.83-.35.09-1.67,0-2.21.13A32.15,32.15,0,0,0,117.53,68.35Z"></path>
      <path class="cls-3" d="M124.46,64.43c0-2.18,0-4.08,1.28-6a53.86,53.86,0,0,1,7.08-.12c1.55,1.89,1.43,4.48,1.36,6.52a38.91,38.91,0,0,1-.7,6.58,28.71,28.71,0,0,1-7.43.19C124.73,69.47,124.46,67.63,124.46,64.43Zm4.18,3.92a7.22,7.22,0,0,0,1.9-.15c-.23-2.22,0-4.71-.47-6.83-.35.09-1.66,0-2.2.13A31.43,31.43,0,0,0,128.64,68.35Z"></path>
      <path class="cls-3" d="M135.77,58.58a63.81,63.81,0,0,1,6.66-.1c.77.16,3.56,1.08,3.75,1.73.16,3.57,0,5.59.31,8.5,0,.33-.35.65-1,1a21.37,21.37,0,0,1-3.09,1.84c-1.28.53-5,.26-6,0A74,74,0,0,0,135.77,58.58Zm6.15,9.93a9.84,9.84,0,0,0-.15-6.34,7,7,0,0,0-1.82.12c.23,1.59.5,4.16.58,6.06Z"></path>
    </g>
  </g>
</svg>
